<?xml version="1.0" encoding="utf-8"?>
<!-- Generator: Adobe Illustrator 26.3.1, SVG Export Plug-In . SVG Version: 6.00 Build 0)  -->
<svg version="1.1" id="Layer_1" xmlns="http://www.w3.org/2000/svg" xmlns:xlink="http://www.w3.org/1999/xlink" x="0px" y="0px"
	 viewBox="0 0 800 300" style="enable-background:new 0 0 800 300;" xml:space="preserve">
<style type="text/css">
	.st0{fill:#00A469;}
</style>
<g>
	<path class="st0" d="M74.8,69H2.4v162h21.8v-68.4h50.6c16.2,0,28.2-4.7,36-14.2c7.9-9.2,11.8-20.4,11.8-33c0-14.7-4.4-26-13.1-34.2
		S89.1,69,74.8,69 M91.4,137.7c-6.1,4.2-14,6.2-23.8,6.2H24.2V87.7h43.4c8.4,0,14.9,1.2,19.8,3.5c8.7,4.3,13.1,12.3,13.1,24.2
		C100.7,126.1,97.6,133.5,91.4,137.7"/>
	<polygon class="st0" points="234.4,68.9 187.9,146.8 141.4,68.9 115.7,68.9 177,165.6 177,230.9 198.8,230.9 198.8,165.6 
		260.2,68.9 	"/>
	<path class="st0" d="M511.6,199.8L430.8,69H426h-21h-10.3l-46.3,136.9L301.9,69h-31.5v162h20.9v-95.5c0-3.8-0.1-9.7-0.4-17.8
		s-0.3-14.2-0.3-18.2v-5.1L337.4,231h21.7l45.8-135.2v135.1h0.1h20.9h0.1V100.3l81.9,130.5h24.7V69h-20.9L511.6,199.8L511.6,199.8z"
		/>
	<polygon class="st0" points="544.1,69 544.1,88.3 598.4,88.3 598.4,230.9 620.6,230.9 620.6,88.3 675.2,88.3 675.2,69 	"/>
	<path class="st0" d="M784.9,152.6c-5.8-4.3-14-7.8-24.6-10.3l-22-5.1c-14.8-3.5-24.2-6.5-28.6-8.8c-6.4-3.6-9.6-9.4-9.6-17.4
		c0-7.1,2.6-13.5,8.2-19c5.5-5.5,14.3-8.2,26.8-8.2c15.3,0,26.1,4.2,32.6,12.7c3.5,4.5,5.7,11.2,6.8,19.9h20.7
		c0-18.1-5.8-31.1-17.3-39.4c-11.4-8.2-25.6-12.3-42.1-12.3c-17.8,0-31.7,4.7-41.6,14c-9.7,9.2-14.7,21.2-14.7,35.7
		c0,13.4,4.9,23.5,14.9,30.3c5.8,3.9,15.5,7.5,29.5,10.7l21.2,4.9c11.4,2.7,19.9,6,25.3,9.6c5.2,3.8,8.1,10,8.1,18.8
		c0,11.8-6.4,19.9-19,24.6c-6.5,2.3-13.6,3.5-21.6,3.5c-17.7,0-30-5.5-37-16.1c-3.6-5.7-5.8-13.1-6.2-22.5H674
		c-0.3,17.4,5.2,31.3,16.4,41.6c11,10.3,26.5,15.3,46.1,15.3c16.9,0,31.6-3.9,44.3-11.7s19.1-20.5,19.1-38.3
		C799.9,171.2,794.8,160.1,784.9,152.6"/>
</g>
</svg>
